Coordinates
version=1
nRows=32
nColumns=22
inDegrees=yes

Units are S.I. units (second, meters, Newtons, ...)
If the header above contains a line with 'inDegrees', this indicates whether rotational values are in degrees (yes) or radians (no).

endheader
time	pelvis_tilt	pelvis_list	pelvis_rotation	pelvis_tx	pelvis_ty	pelvis_tz	hip_flexion_r	hip_adduction_r	hip_rotation_r	knee_angle_r	ankle_angle_r	subtalar_angle_r	hip_flexion_l	hip_adduction_l	hip_rotation_l	knee_angle_l	ankle_angle_l	subtalar_angle_l	lumbar_extension	lumbar_bending	lumbar_rotation
      1.28000000	    -12.44736449	      3.91852746	    -35.01857407	     -0.90145703	      0.87265762	     -0.40554671	     15.84319744	     -0.71693983	      0.31837231	    -17.10925207	     15.74193089	      2.26685174	      7.87179450	     -0.90473018	      1.85514545	     -7.73200547	     18.16872783	     -1.83866273	      4.29825202	     -0.56726135	     13.43743004
      1.29000000	    -12.25318390	      3.81184862	    -34.97906359	     -0.89973559	      0.87262850	     -0.40530706	     16.58435251	     -0.77456650	      0.27530627	    -19.12545393	     15.93768428	      2.32555667	      7.51436517	     -0.81193269	      1.99869010	     -7.72380251	     18.34803051	     -2.01131424	      4.08233531	     -0.53501730	     13.32357356
      1.30000000	    -12.05644669	      3.68715405	    -34.93681040	     -0.89799372	      0.87263086	     -0.40505864	     17.39953518	     -0.81544127	      0.22599327	    -21.29622712	     16.02445011	      2.37931468	      7.14177919	     -0.73421323	      2.13392015	     -7.71165972	     18.52794831	     -2.16771356	      3.83880987	     -0.48376244	     13.18314682
      1.31000000	    -11.83791881	      3.53328266	    -34.88603963	     -0.89622121	      0.87270354	     -0.40477685	     18.25505832	     -0.84271544	      0.15919501	    -23.60511743	     15.99287656	      2.40177477	      6.73229633	     -0.67186062	      2.27217230	     -7.70164797	     18.69730033	     -2.27689348	      3.54100609	     -0.42211356	     13.02197920
      1.32000000	    -11.63420713	      3.36992366	    -34.83157759	     -0.89438978	      0.87278320	     -0.40448035	     19.19046915	     -0.85453196	      0.08394281	    -26.03748001	     15.80616803	      2.40510877	      6.31797670	     -0.62677548	      2.39730725	     -7.67164048	     18.86613145	     -2.39050924	      3.24189616	     -0.33051229	     12.82305126
      1.33000000	    -11.41165616	      3.19070718	    -34.75533960	     -0.89248363	      0.87290769	     -0.40415412	     20.15102679	     -0.86747926	      0.00264416	    -28.55386395	     15.47272838	      2.36577933	      5.86438175	     -0.58513949	      2.52541150	     -7.61949343	     19.06173434	     -2.48105558	      2.90414993	     -0.23586564	     12.56306889
      1.34000000	    -11.25810481	      3.02692393	    -34.67025383	     -0.89059150	      0.87294724	     -0.40378458	     21.24515106	     -0.84754879	     -0.07950886	    -31.15879763	     15.01519986	      2.24988787	      5.48734710	     -0.57778059	      2.64789638	     -7.57835651	     19.19728136	     -2.66383376	      2.63133207	     -0.11333485	     12.31074055
      1.35000000	    -11.03192171	      2.82533855	    -34.55647869	     -0.88854082	      0.87309458	     -0.40338398	     22.26967299	     -0.85521968	     -0.19950180	    -33.78040316	     14.48778677	      2.07026706	      4.99814248	     -0.55782269	      2.78452853	     -7.50125186	     19.32142295	     -2.75455601	      2.25758874	      0.00278336	     11.99757387
      1.36000000	    -10.81666731	      2.63291538	    -34.42700391	     -0.88643306	      0.87320445	     -0.40294160	     23.33175980	     -0.86488283	     -0.30831886	    -36.40069035	     13.88519095	      1.78640226	      4.51765229	     -0.53955313	      2.92514806	     -7.41689932	     19.45139937	     -2.86597290	      1.89374062	      0.12164266	     11.65177662
      1.37000000	    -10.59494890	      2.44570458	    -34.27549866	     -0.88424005	      0.87328950	     -0.40241018	     24.39178533	     -0.88635702	     -0.42637848	    -38.97455270	     13.27076810	      1.39075631	      4.01864129	     -0.51900686	      3.07290242	     -7.31534388	     19.58237150	     -2.98983009	      1.52382553	      0.22539526	     11.27961600
      1.38000000	    -10.36071066	      2.25448017	    -34.10494496	     -0.88192547	      0.87335983	     -0.40180916	     25.41876735	     -0.91720647	     -0.54842318	    -41.45222868	     12.70286950	      0.90507730	      3.49199086	     -0.49712324	      3.23018947	     -7.20222338	     19.71137722	     -3.11597484	      1.13901024	      0.33032171	     10.87901732
      1.39000000	    -10.14225553	      2.04930060	    -33.92669488	     -0.87951757	      0.87338637	     -0.40108385	     26.41446438	     -0.91876939	     -0.66608437	    -43.78352294	     12.23365281	      0.18939206	      2.95744121	     -0.50538625	      3.41331141	     -7.08625890	     19.88933473	     -3.30405670	      0.76193560	      0.45760600	     10.49845867
      1.40000000	     -9.89295619	      1.83909132	    -33.71432376	     -0.87692957	      0.87343082	     -0.40028404	     27.32484185	     -0.95741177	     -0.82376692	    -45.92815066	     11.90410178	     -0.39944143	      2.37698703	     -0.50162909	      3.59315865	     -6.95861205	     20.02600474	     -3.42183976	      0.35717950	      0.57536059	     10.06503849
      1.41000000	     -9.65297012	      1.62474294	    -33.48308646	     -0.87423203	      0.87344702	     -0.39938728	     28.17804675	     -0.99212703	     -0.99602540	    -47.84303551	     11.72339355	     -0.98636915	      1.80198144	     -0.51350081	      3.77708219	     -6.84824379	     20.17751449	     -3.53382258	     -0.04096071	      0.70563730	      9.61039627
      1.42000000	     -9.42929890	      1.40927156	    -33.23272083	     -0.87141599	      0.87342481	     -0.39840391	     28.98030572	     -1.03543941	     -1.21447589	    -49.50956607	     11.71051168	     -1.48265237	      1.24203421	     -0.54122067	      3.98317444	     -6.75919506	     20.32616131	     -3.61231846	     -0.42230286	      0.85014839	      9.17124613
      1.43000000	     -9.22085176	      1.19675375	    -32.96535993	     -0.86851777	      0.87337906	     -0.39735673	     29.72323554	     -1.08482056	     -1.45345655	    -50.88577864	     11.81440981	     -1.80083774	      0.72209514	     -0.57947636	      4.16799881	     -6.72901098	     20.49164656	     -3.64441674	     -0.79266654	      1.00810322	      8.69200424
      1.44000000	     -9.07751379	      0.98157418	    -32.72143483	     -0.86558190	      0.87326770	     -0.39617302	     30.44814041	     -1.08360118	     -1.70708632	    -51.94768880	     11.96048507	     -2.38836886	      0.25060315	     -0.66723217	      4.37326798	     -6.70232650	     20.68146178	     -3.74170851	     -1.10424116	      1.21028577	      8.29130079
      1.45000000	     -8.95681401	      0.77785481	    -32.46228940	     -0.86255381	      0.87311814	     -0.39494663	     31.12410166	     -1.10541407	     -1.99888296	    -52.70002334	     12.15634875	     -2.59664796	     -0.16154887	     -0.75824565	      4.55669439	     -6.74867138	     20.86544858	     -3.75218753	     -1.39306396	      1.42165711	      7.86942084
      1.46000000	     -8.89722003	      0.57568861	    -32.22488606	     -0.85948817	      0.87290866	     -0.39362453	     31.77733878	     -1.09162994	     -2.30821767	    -53.11955807	     12.31361475	     -2.86887261	     -0.51279068	     -0.88701417	      4.74463314	     -6.81796848	     21.07004425	     -3.78132792	     -1.62932952	      1.67371445	      7.49191056
      1.47000000	     -8.88223126	      0.38084531	    -32.01839033	     -0.85639149	      0.87263935	     -0.39218121	     32.40001160	     -1.04722575	     -2.61339658	    -53.21694788	     12.42018601	     -3.12323652	     -0.81154220	     -1.03780064	      4.90872662	     -6.92068698	     21.28943752	     -3.81539517	     -1.82490020	      1.94515801	      7.16661924
      1.48000000	     -8.89907121	      0.20141710	    -31.84963576	     -0.85327188	      0.87230076	     -0.39062297	     32.99163482	     -0.98047467	     -2.89490839	    -53.00989416	     12.48112413	     -3.28616071	     -1.06518617	     -1.19391821	      5.07100714	     -7.05808313	     21.54704346	     -3.84597046	     -1.99155239	      2.21967172	      6.91011110
      1.49000000	     -8.95728850	      0.02814760	    -31.70004245	     -0.85009138	      0.87191030	     -0.38894985	     33.53855724	     -0.88556120	     -3.17653063	    -52.47960948	     12.43922713	     -3.43000250	     -1.27420930	     -1.36955568	      5.19562083	     -7.21528875	     21.78578516	     -3.88819600	     -2.11953510	      2.51427129	      6.67468725
      1.50000000	     -9.03354856	     -0.13669810	    -31.58467778	     -0.84686596	      0.87145669	     -0.38712571	     34.03555887	     -0.75921478	     -3.42473220	    -51.66882590	     12.32039315	     -3.52430596	     -1.46145816	     -1.54985661	      5.30538471	     -7.39691886	     22.04129382	     -3.93565666	     -2.23310334	      2.80683933	      6.48228541
      1.51000000	     -9.11834180	     -0.29743752	    -31.49350398	     -0.84355577	      0.87095674	     -0.38514121	     34.46242300	     -0.60385747	     -3.63528645	    -50.58141274	     12.11858767	     -3.55426075	     -1.63985200	     -1.73431573	      5.40173738	     -7.60079942	     22.30595554	     -3.98460720	     -2.33854057	      3.09489004	      6.32516458
      1.52000000	     -9.20366974	     -0.46493592	    -31.41643043	     -0.84013310	      0.87041483	     -0.38300399	     34.80447315	     -0.41514632	     -3.80432403	    -49.23527229	     11.83093212	     -3.50481114	     -1.82585556	     -1.92809111	      5.48549819	     -7.82162983	     22.58804785	     -4.02977868	     -2.44872781	      3.38788476	      6.19625184
      1.53000000	     -9.25746576	     -0.66780611	    -31.34230278	     -0.83655189	      0.86988255	     -0.38069802	     35.00540088	     -0.18908114	     -3.93460378	    -47.64167201	     11.51844208	     -3.32284714	     -2.07153837	     -2.14269169	      5.55565936	     -8.04883241	     22.89250318	     -4.05019144	     -2.60854281	      3.69398228	      6.06803886
      1.54000000	     -9.31071787	     -0.86845348	    -31.28447535	     -0.83286245	      0.86928186	     -0.37822509	     35.13824985	      0.06658353	     -3.99979944	    -45.84232627	     11.09016823	     -3.04198778	     -2.32442962	     -2.35967261	      5.60586739	     -8.28724392	     23.20573503	     -4.04977103	     -2.76795280	      3.99298340	      5.96925086
      1.55000000	     -9.34299106	     -1.08178919	    -31.22999357	     -0.82905262	      0.86864174	     -0.37558464	     35.17212298	      0.34462619	     -4.01588881	    -43.85670961	     10.58575247	     -2.64572264	     -2.61251955	     -2.58480778	      5.63868681	     -8.53111605	     23.52928926	     -4.01571438	     -2.95616149	      4.28522283	      5.88205167
      1.56000000	     -9.32988056	     -1.29391189	    -31.18103667	     -0.82510451	      0.86797037	     -0.37283982	     35.10709192	      0.60747978	     -3.98270305	    -41.72238961	      9.98191764	     -2.04627169	     -2.95727969	     -2.78473191	      5.66509000	     -8.76847886	     23.84316052	     -3.90930128	     -3.19215191	      4.55266698	      5.80990120
      1.57000000	     -9.33937521	     -1.49011059	    -31.13998613	     -0.82106128	      0.86716018	     -0.36995097	     35.01214206	      0.88617763	     -3.89720552	    -39.45192715	      9.32694307	     -1.43619314	     -3.27318195	     -2.98843213	      5.65365709	     -9.02691009	     24.18073787	     -3.80916434	     -3.39680096	      4.81732183	      5.73044372
      1.58000000	     -9.33853553	     -1.67380800	    -31.10036738	     -0.81690505	      0.86625588	     -0.36695010	     34.86499472	      1.15421757	     -3.77296277	    -37.08162731	      8.61274606	     -0.77284509	     -3.59702919	     -3.17807346	      5.62984033	     -9.29878997	     24.53130100	     -3.69943147	     -3.60762586	      5.06410687	      5.66172414
      1.59000000	     -9.32732320	     -1.83485570	    -31.05939998	     -0.81262007	      0.86524566	     -0.36384139	     34.67970629	      1.40023456	     -3.60025803	    -34.64394523	      7.85446588	     -0.03537154	     -3.93516014	     -3.34438174	      5.59620238	     -9.56049195	     24.88138779	     -3.57389968	     -3.81532815	      5.28531015	      5.58075841
